# .PCD v0.7 - Point Cloud Data file format
VERSION 0.7
FIELDS x y z
SIZE 4 4 4
TYPE F F F
COUNT 1 1 1
WIDTH 1531
HEIGHT 1
VIEWPOINT 0 0 0 1 0 0 0
POINTS 1531
DATA ascii
0.85100001 0.66000003 3.9690001
0.79799998 0.65600002 3.95
0.74299997 0.65899998 3.9790001
0.68000001 0.66600001 4.0380001
0.59399998 0.66000003 4.0149999
0.49700001 0.65100002 3.9679999
0.35800001 0.57999998 3.549
0.259 0.56400001 3.4549999
0.15099999 0.51099998 3.138
0.074000001 0.583 3.5810001
-0.027000001 0.63 3.8740001
-0.13699999 0.64499998 3.961
-0.241 0.634 3.892
-0.34299999 0.63499999 3.8889999
-0.442 0.639 3.902
-0.54299998 0.65200001 3.97
-0.62099999 0.64499998 3.914
-0.685 0.63499999 3.8440001
-0.75099999 0.639 3.8540001
-0.81 0.64499998 3.8800001
-0.83499998 0.634 3.806
-0.903 0.66399997 3.9790001
-0.93000001 0.67199999 4.026
0.77600002 0.602 3.6170001
0.76899999 0.63200003 3.806
0.76099998 0.67500001 4.0760002
0.67000002 0.65700001 3.98
0.59100002 0.65700001 3.994
0.51099998 0.67000002 4.085
0.324 0.52499998 3.2119999
0.23899999 0.51899999 3.184
0.16500001 0.55800003 3.4230001
0.081 0.63599998 3.911
-0.027000001 0.63800001 3.9189999
-0.13500001 0.63200003 3.8800001
-0.241 0.634 3.8900001
-0.34400001 0.63599998 3.8959999
-0.44499999 0.64200002 3.924
-0.52899998 0.634 3.8610001
-0.61699998 0.63999999 3.8859999
-0.699 0.648 3.924
-0.76200002 0.648 3.9119999
-0.847 0.67500001 4.059
-0.847 0.64200002 3.8570001
-0.89899999 0.66000003 3.9579999
-0.92299998 0.667 3.997
0.85000002 0.64099997 3.964
0.78299999 0.625 3.8729999
0.72399998 0.62400001 3.8770001
0.671 0.639 3.983
0.59899998 0.64700001 4.0469999
0.47400001 0.60399997 3.79
0.36700001 0.57800001 3.6389999
0.26300001 0.55599999 3.5039999
0.156 0.51300001 3.243
0.071000002 0.54500002 3.444
-0.027000001 0.61299998 3.8729999
-0.13699999 0.62300003 3.9349999
-0.242 0.62 3.915
-0.34400001 0.61799997 3.8929999
-0.44299999 0.62300003 3.9119999
-0.53100002 0.61900002 3.8789999
-0.61199999 0.61799997 3.858
-0.69099998 0.62300003 3.8800001
-0.75300002 0.62300003 3.8640001
-0.83399999 0.64600003 3.9979999
-0.85399997 0.63 3.8889999
-0.90899998 0.64899999 4.0040002
-0.926 0.65100002 4.0079999
0.73699999 0.54000002 3.4349999
0.70300001 0.546 3.48
0.72600001 0.60799998 3.8870001
0.68199998 0.63099998 4.0500002
0.59600002 0.62599999 4.0300002
0.412 0.50999999 3.289
0.31400001 0.48100001 3.115
0.241 0.49599999 3.2149999
0.16599999 0.52999997 3.4430001
0.079000004 0.58399999 3.799
-0.027000001 0.59500003 3.8729999
-0.13500001 0.59799999 3.8859999
-0.23999999 0.597 3.8789999
-0.34 0.59399998 3.8510001
-0.44600001 0.60900003 3.9360001
-0.52600002 0.597 3.8440001
-0.60399997 0.59200001 3.8039999
-0.70700002 0.62 3.973
-0.76300001 0.61400002 3.918
-0.81999999 0.61699998 3.9289999
-0.87099999 0.625 3.9690001
-0.90499997 0.62900001 3.987
-0.90200001 0.616 3.902
0.70300001 0.5 3.279
0.667 0.50300002 3.302
0.69800001 0.56800002 3.74
0.67900002 0.61000001 4.033
0.579 0.58999997 3.914
0.40400001 0.48500001 3.2260001
0.31200001 0.46399999 3.0910001
0.23899999 0.477 3.191
0.178 0.551 3.688
0.078000002 0.56400001 3.7809999
-0.027000001 0.58399999 3.9130001
-0.133 0.57300001 3.8369999
-0.24600001 0.59299999 3.964
-0.33700001 0.57200003 3.8169999
-0.447 0.59299999 3.947
-0.53299999 0.58600003 3.891
-0.61400002 0.58499998 3.8699999
-0.685 0.583 3.845
-0.76200002 0.59500003 3.9130001
-0.82800001 0.60500002 3.9679999
-0.86299998 0.60000002 3.9300001
-0.89200002 0.60100001 3.931
-0.926 0.61299998 4.006
0.81 0.56 3.7780001
0.72600001 0.53100002 3.5929999
0.69400001 0.54699999 3.7160001
0.62199998 0.542 3.694
0.53899997 0.53299999 3.6400001
0.419 0.48800001 3.345
0.32300001 0.46599999 3.2019999
0.245 0.47400001 3.266
0.156 0.47 3.2420001
0.068999998 0.48500001 3.348
-0.027000001 0.55699998 3.849
-0.133 0.55599999 3.8340001
-0.23899999 0.56099999 3.8640001
-0.34400001 0.56599998 3.8929999
-0.442 0.56800002 3.898
-0.537 0.57300001 3.9230001
-0.60600001 0.56 3.816
-0.70300001 0.57999998 3.947
-0.76599997 0.57999998 3.9319999
-0.83600003 0.59299999 4.006
-0.84899998 0.57300001 3.868
-0.88300002 0.57800001 3.8900001
-0.91600001 0.58899999 3.9660001
-2.5420001 1.212 7.1729999
0.80199999 0.56900001 3.971
0.73500001 0.56300002 3.9389999
0.667 0.56400001 3.9579999
0.59200001 0.56800002 4.0040002
0.48100001 0.54400003 3.8440001
0.37799999 0.52899998 3.7520001
0.24600001 0.46200001 3.283
0.14300001 0.41600001 2.957
0.063000001 0.43000001 3.0610001
-0.024 0.47400001 3.3729999
-0.133 0.537 3.825
-0.243 0.551 3.918
-0.338 0.54000002 3.8299999
-0.43799999 0.546 3.8659999
-0.52899998 0.54799998 3.8670001
-0.62199998 0.55699998 3.921
-0.69999999 0.56 3.9300001
-0.75300002 0.55299997 3.868
-0.80699998 0.55400002 3.8659999
-0.88099998 0.57700002 4.0120001
-0.89099997 0.565 3.927
-0.91399997 0.56999999 3.954
0.77600002 0.50300002 3.6170001
0.80000001 0.54900002 3.9579999
0.71799999 0.53200001 3.8469999
0.66399997 0.54400003 3.944
0.59100002 0.54900002 3.9949999
0.47600001 0.52100003 3.802
0.368 0.49900001 3.6530001
0.241 0.43900001 3.2190001
0.141 0.39899999 2.9300001
0.061000001 0.40099999 2.947
-0.025 0.47999999 3.53
-0.134 0.52600002 3.8670001
-0.241 0.53100002 3.898
-0.34400001 0.53200001 3.9030001
-0.43000001 0.51899999 3.793
-0.51899999 0.51999998 3.789
-0.60900003 0.528 3.836
-0.69 0.53500003 3.8740001
-0.73799998 0.52499998 3.79
-0.833 0.55400002 3.9890001
-0.86900002 0.551 3.9590001
-0.89399999 0.54900002 3.938
-0.91000003 0.55000001 3.9400001
0.82200003 0.51599997 3.835
0.79699999 0.52899998 3.9460001
0.72799999 0.52200001 3.9000001
0.67199999 0.53200001 3.9920001
0.583 0.52399999 3.9389999
0.48800001 0.51700002 3.9000001
0.347 0.45500001 3.441
0.236 0.41499999 3.1470001
0.139 0.37799999 2.872
0.057 0.361 2.743
-0.021 0.39300001 2.9860001
-0.132 0.50099999 3.8099999
-0.237 0.505 3.8340001
-0.338 0.50599998 3.8340001
-0.44499999 0.51899999 3.925
-0.52600002 0.50999999 3.8429999
-0.62800002 0.52700001 3.9549999
-0.70200002 0.52700001 3.9419999
-0.75300002 0.51800001 3.865
-0.79799998 0.514 3.825
-0.86500001 0.52999997 3.9400001
-0.89099997 0.52899998 3.9260001
-0.921 0.53799999 3.987
0.829 0.50199997 3.8659999
0.78799999 0.505 3.898
0.73500001 0.509 3.9400001
0.667 0.50999999 3.9579999
0.58899999 0.51099998 3.98
0.495 0.50599998 3.9530001
0.39399999 0.498 3.905
0.27599999 0.46900001 3.6830001
0.153 0.403 3.1689999
0.056000002 0.347 2.7290001
-0.02 0.366 2.885
-0.125 0.456 3.5910001
-0.228 0.46900001 3.684
-0.34200001 0.495 3.8800001
-0.42699999 0.48199999 3.7679999
-0.528 0.495 3.859
-0.60799998 0.493 3.8329999
-0.69400001 0.50300002 3.9000001
-0.76300001 0.50700003 3.9159999
-0.79400003 0.49399999 3.806
-0.85399997 0.50599998 3.891
-0.88999999 0.51099998 3.921
-0.91500002 0.51599997 3.961
0.82200003 0.48100001 3.832
0.77200001 0.47799999 3.8180001
0.74000001 0.49399999 3.9619999
0.64999998 0.47999999 3.858
0.56800002 0.47600001 3.8399999
0.48699999 0.48100001 3.8889999
0.382 0.46700001 3.79
0.27000001 0.44299999 3.5999999
0.161 0.41 3.3399999
0.056000002 0.33199999 2.7090001
-0.018999999 0.34 2.7750001
-0.12800001 0.45199999 3.6800001
-0.22400001 0.44499999 3.625
-0.33399999 0.46599999 3.7869999
-0.435 0.47299999 3.8329999
-0.53600001 0.484 3.9130001
-0.61299998 0.47999999 3.8640001
-0.67799997 0.47400001 3.8080001
-0.764 0.49000001 3.9200001
-0.80500001 0.48300001 3.859
-0.82700002 0.47299999 3.7679999
-0.89200002 0.49399999 3.9300001
-0.92900002 0.50599998 4.02
0.83499998 0.47099999 3.892
0.796 0.47499999 3.938
0.72000003 0.46399999 3.855
0.66100001 0.47099999 3.924
0.583 0.47099999 3.938
0.50400001 0.47999999 4.0250001
0.39199999 0.46200001 3.885
0.292 0.46200001 3.8959999
0.183 0.449 3.7969999
0.057 0.324 2.7390001
-0.02 0.331 2.799
-0.107 0.36300001 3.0710001
-0.19599999 0.375 3.164
-0.33199999 0.44600001 3.7590001
-0.43099999 0.45300001 3.803
-0.52100003 0.454 3.806
-0.58999997 0.44499999 3.72
-0.67199999 0.45300001 3.7739999
-0.74400002 0.46000001 3.8180001
-0.80900002 0.46799999 3.875
-0.84100002 0.46399999 3.8310001
-0.88099998 0.47099999 3.882
-0.90899998 0.47799999 3.9349999
0.824 0.447 3.842
0.77399999 0.44499999 3.832
0.48899999 0.44800001 3.908
0.389 0.44 3.852
0.285 0.433 3.7950001
0.169 0.40000001 3.5150001
0.056000002 0.308 2.704
-0.018999999 0.30500001 2.6819999
-0.092 0.301 2.6440001
-0.19400001 0.35699999 3.135
-0.329 0.42500001 3.7249999
-0.42300001 0.42699999 3.73
-0.51099998 0.42899999 3.7349999
-0.59500003 0.43200001 3.747
-0.68000001 0.44100001 3.819
-0.74199998 0.44100001 3.8080001
-0.79400003 0.442 3.8050001
-0.82700002 0.43900001 3.7679999
-0.86699998 0.44499999 3.819
-0.92500001 0.46700001 4.0029998
0.83099997 0.433 3.8740001
0.78899997 0.43599999 3.9059999
0.741 0.44100001 3.967
0.67699999 0.44600001 4.0170002
0.579 0.433 3.9130001
0.48300001 0.42500001 3.858
0.39300001 0.42899999 3.898
0.29300001 0.42899999 3.9130001
0.168 0.382 3.4849999
0.056000002 0.29800001 2.727
-0.018999999 0.28999999 2.655
-0.093999997 0.29699999 2.711
-0.185 0.32699999 2.9860001
-0.331 0.412 3.7490001
-0.43099999 0.419 3.8050001
-0.509 0.41 3.7149999
-0.58999997 0.412 3.717
-0.671 0.419 3.7679999
-0.74299997 0.42500001 3.816
-0.787 0.421 3.77
-0.82300001 0.41999999 3.7479999
-0.86900002 0.42899999 3.8280001
-0.92199999 0.44800001 3.9909999
0.81300002 0.40700001 3.79
0.78500003 0.41600001 3.8840001
0.72299999 0.414 3.875
0.65600002 0.414 3.895
0.59299999 0.42500001 4.0050001
0.484 0.40900001 3.868
0.39300001 0.41100001 3.9000001
0.287 0.40200001 3.8210001
0.183 0.40000001 3.8050001
0.059 0.30000001 2.862
-0.017999999 0.271 2.5810001
-0.093000002 0.28200001 2.691
-0.16 0.27200001 2.5840001
-0.31299999 0.373 3.5439999
-0.41100001 0.38299999 3.625
-0.509 0.39300001 3.7149999
-0.59799999 0.40000001 3.7690001
-0.66500002 0.398 3.7360001
-0.73100001 0.40099999 3.7539999
-0.792 0.40700001 3.7939999
-0.815 0.39899999 3.7149999
-0.852 0.40400001 3.7509999
-0.89899999 0.419 3.8900001
0.81400001 0.38999999 3.7969999
0.78299999 0.39700001 3.8729999
0.73500001 0.403 3.9349999
0.66299999 0.40099999 3.9330001
0.57099998 0.39199999 3.858
0.48199999 0.38999999 3.8469999
0.389 0.38999999 3.858
0.296 0.398 3.9460001
0.18000001 0.37599999 3.74
0.078000002 0.38 3.7809999
-0.018999999 0.26800001 2.664
-0.090000004 0.26199999 2.6029999
-0.17399999 0.28299999 2.8069999
-0.25299999 0.289 2.8670001
-0.42199999 0.37599999 3.72
-0.51800001 0.384 3.7850001
-0.58700001 0.37599999 3.697
-0.67699999 0.38800001 3.8010001
-0.727 0.382 3.733
-0.78500003 0.38600001 3.76
-0.81900001 0.384 3.73
-0.852 0.38699999 3.753
-0.90399998 0.40400001 3.9119999
0.80699998 0.37 3.7639999
0.773 0.375 3.8239999
0.71600002 0.375 3.836
0.65399998 0.37799999 3.8829999
0.58499998 0.384 3.9530001
0.493 0.38100001 3.937
0.38600001 0.37 3.8299999
0.29300001 0.377 3.9130001
0.184 0.36700001 3.8180001
0.075999998 0.35299999 3.671
-0.02 0.271 2.8199999
-0.092 0.25400001 2.6459999
-0.177 0.27500001 2.8599999
-0.236 0.25799999 2.6700001
-0.41299999 0.352 3.641
-0.509 0.361 3.7190001
-0.59500003 0.36500001 3.7509999
-0.67400002 0.36899999 3.783
-0.73100001 0.36700001 3.7509999
-0.78600001 0.37 3.767
-0.82200003 0.368 3.7449999
-0.84899998 0.368 3.74
-0.90200001 0.38499999 3.902
0.82499999 0.361 3.845
0.76200002 0.35299999 3.77
0.72000003 0.36000001 3.859
0.634 0.34999999 3.7639999
0.56699997 0.35499999 3.8329999
0.484 0.35699999 3.865
0.38800001 0.35499999 3.848
0.289 0.35499999 3.855
0.184 0.35100001 3.8169999
0.079000004 0.352 3.835
-0.021 0.27700001 3.0179999
-0.093000002 0.24699999 2.694
-0.17 0.25299999 2.75
-0.22400001 0.234 2.5380001
-0.39199999 0.31900001 3.4590001
-0.50099999 0.33899999 3.6630001
-0.59399998 0.34799999 3.7449999
-0.67799997 0.35499999 3.806
-0.73100001 0.35100001 3.7509999
-0.78200001 0.35100001 3.7479999
-0.829 0.35499999 3.776
-0.85299999 0.35299999 3.757
-0.889 0.36199999 3.8499999
0.76899999 0.31999999 3.586
0.745 0.329 3.688
0.71100003 0.338 3.8069999
0.62400001 0.32800001 3.704
0.56400001 0.33700001 3.8110001
0.477 0.336 3.813
0.38100001 0.331 3.7739999
0.28099999 0.32800001 3.7460001
0.182 0.33000001 3.7709999
0.077 0.32699999 3.7409999
-0.024 0.30399999 3.474
-0.090999998 0.229 2.6210001
-0.15700001 0.221 2.529
-0.21699999 0.215 2.4560001
-0.32699999 0.25400001 2.8859999
-0.50700003 0.32600001 3.701
-0.60799998 0.33899999 3.8340001
-0.68099999 0.33899999 3.822
-0.74199998 0.33899999 3.8099999
-0.79000002 0.338 3.786
-0.82099998 0.33500001 3.7409999
-0.84500003 0.333 3.721
-0.87599999 0.34 3.79
-11.89 5.6680002 33.548
0.69 0.289 3.414
0.66100001 0.29899999 3.5409999
0.62199998 0.31 3.691
0.54000002 0.30599999 3.651
0.47600001 0.31799999 3.802
0.38499999 0.31799999 3.812
0.28400001 0.315 3.7820001
0.18099999 0.31099999 3.7460001
0.075999998 0.30500001 3.675
-0.026000001 0.30700001 3.697
-0.097000003 0.23199999 2.793
-0.154 0.207 2.4849999
-0.21799999 0.205 2.4660001
-0.29699999 0.219 2.622
-0.5 0.30599999 3.651
-0.58200002 0.308 3.665
-0.68000001 0.322 3.8210001
-0.72399998 0.31400001 3.717
-0.78399998 0.31799999 3.7579999
-0.82800001 0.31999999 3.7720001
-0.85000002 0.31799999 3.744
-0.87199998 0.32100001 3.776
0.62599999 0.235 2.9219999
0.62099999 0.24600001 3.0739999
0.60299999 0.25799999 3.2290001
0.55699998 0.26300001 3.3050001
0.52200001 0.28 3.53
0.46000001 0.29100001 3.671
0.37 0.28999999 3.6659999
0.28200001 0.296 3.756
0.177 0.289 3.6730001
0.077 0.29100001 3.701
-0.025 0.28099999 3.573
-0.104 0.236 3.0009999
-0.15700001 0.199 2.5309999
-0.21799999 0.19499999 2.467
-0.27599999 0.193 2.438
-0.495 0.287 3.6140001
-0.58200002 0.292 3.668
-0.671 0.301 3.766
-0.73199999 0.301 3.76
-0.764 0.294 3.661
-0.83099997 0.30500001 3.7869999
-0.85000002 0.30199999 3.7449999
-0.89499998 0.31200001 3.872
0.54699999 0.19400001 2.552
0.53600001 0.20100001 2.655
0.48199999 0.19499999 2.5810001
0.46000001 0.205 2.7290001
0.40900001 0.207 2.766
0.377 0.22499999 3.0090001
0.31400001 0.23199999 3.1140001
0.242 0.23999999 3.224
0.149 0.229 3.082
0.064999998 0.233 3.1440001
-0.023 0.23999999 3.234
-0.097999997 0.20900001 2.8239999
-0.15099999 0.182 2.4449999
-0.214 0.18000001 2.4230001
-0.27399999 0.18000001 2.4170001
-0.412 0.22499999 3.0109999
-0.58899999 0.27900001 3.714
-0.64499998 0.273 3.6210001
-0.72000003 0.27900001 3.698
-0.78200001 0.28400001 3.7460001
-0.81900001 0.28299999 3.7290001
-0.84299999 0.28200001 3.711
-0.88499999 0.29100001 3.8299999
3.0339999 0.93900001 13.099
0.53600001 0.167 2.336
0.55199999 0.177 2.4690001
0.52899998 0.176 2.4660001
0.50999999 0.18000001 2.523
0.47400001 0.18000001 2.5380001
0.435 0.183 2.5829999
0.38999999 0.186 2.635
0.333 0.18700001 2.664
0.27599999 0.192 2.7309999
0.197 0.184 2.628
0.134 0.19400001 2.779
0.057 0.19400001 2.7739999
-0.018999999 0.185 2.6559999
-0.083999999 0.17 2.4319999
-0.15000001 0.17 2.4289999
-0.215 0.171 2.4389999
-0.27700001 0.17200001 2.4449999
-0.35699999 0.184 2.609
-0.58700001 0.26100001 3.7
-0.65600002 0.26100001 3.681
-0.72299999 0.264 3.714
-0.76200002 0.25999999 3.6530001
-0.81800002 0.266 3.7249999
-0.84100002 0.26499999 3.704
-0.87199998 0.27000001 3.7750001
0.51700002 0.161 2.4119999
0.50700003 0.168 2.51
0.46200001 0.16500001 2.473
0.42300001 0.167 2.51
0.377 0.169 2.5469999
0.32499999 0.17200001 2.599
0.26300001 0.17200001 2.6059999
0.18799999 0.164 2.5050001
0.127 0.17200001 2.6240001
0.052999999 0.168 2.5599999
-0.017999999 0.164 2.5
-0.081 0.153 2.336
-0.147 0.155 2.3699999
-0.20999999 0.156 2.3800001
-0.27399999 0.15899999 2.4200001
-0.34099999 0.16500001 2.4920001
-0.57700002 0.241 3.635
-0.65600002 0.245 3.684
-0.71799999 0.24600001 3.6860001
-0.77600002 0.249 3.72
-0.829 0.25299999 3.777
-0.85100001 0.252 3.7490001
-0.86199999 0.25099999 3.7309999
0.50400001 0.147 2.352
0.49000001 0.15099999 2.4230001
0.45199999 0.15000001 2.4200001
0.41100001 0.15099999 2.437
0.36399999 0.152 2.46
0.30899999 0.152 2.4679999
0.249 0.15099999 2.4679999
0.184 0.15000001 2.4579999
0.12 0.152 2.4820001
0.050999999 0.149 2.4489999
-0.016000001 0.142 2.323
-0.078000002 0.138 2.2550001
-0.146 0.14399999 2.3559999
-0.20999999 0.146 2.3800001
-0.26899999 0.146 2.375
-0.33700001 0.152 2.464
-0.57499999 0.22400001 3.622
-0.65200001 0.227 3.661
-0.71200001 0.227 3.6530001
-0.78600001 0.235 3.7650001
-0.81599998 0.23199999 3.72
-0.83499998 0.23 3.677
-0.87900001 0.23800001 3.8039999
0.48699999 0.132 2.2720001
0.472 0.13500001 2.336
0.435 0.134 2.329
0.40099999 0.13699999 2.3800001
0.35600001 0.138 2.4089999
0.29300001 0.134 2.3429999
0.23800001 0.13500001 2.362
0.17900001 0.13600001 2.3840001
0.118 0.139 2.4400001
0.050000001 0.13600001 2.405
-0.016000001 0.13 2.2869999
-0.077 0.126 2.2279999
-0.14 0.12899999 2.2679999
-0.208 0.134 2.359
-0.26800001 0.13500001 2.3610001
-0.33700001 0.141 2.464
-0.56400001 0.204 3.5569999
-0.64300001 0.208 3.6110001
-0.704 0.20900001 3.615
-0.77499998 0.215 3.714
-0.80299997 0.212 3.6600001
-0.83499998 0.214 3.6800001
-0.87 0.219 3.7639999
0.49200001 0.123 2.2950001
0.465 0.123 2.3010001
0.42699999 0.121 2.2850001
0.389 0.122 2.3069999
0.34 0.121 2.3
0.28999999 0.122 2.316
0.23999999 0.125 2.3789999
0.176 0.123 2.3469999
0.113 0.123 2.342
0.048999999 0.123 2.3610001
-0.016000001 0.12 2.2950001
-0.079000004 0.119 2.2709999
-0.138 0.116 2.224
-0.205 0.122 2.3239999
-0.26300001 0.122 2.3169999
-0.33700001 0.13 2.4649999
-0.56999999 0.19 3.5940001
-0.64300001 0.192 3.6099999
-0.70300001 0.192 3.609
-0.764 0.19499999 3.6589999
-0.80299997 0.19599999 3.6559999
-0.81900001 0.193 3.6070001
-0.86299998 0.2 3.734
-23.951 -18.653999 70.709
24.530001 -18.646999 70.478996
-3.069 -18.628 74.487
-14.682 -18.597 72.966003
-20.612 -18.556 71.344002
-20.365 -18.504 71.199997
18.040001 -18.443001 71.570999
-14.889 -18.372999 72.005997
17.895 -18.295 70.998001
17.625 -18.211 70.720001
-20.129999 -18.122 69.676003
-20.211 -18.028 69.264
-19.92 -17.933001 68.949997
11.106 -17.836 70.513
12.54 -17.74 69.880997
-19.782 -17.645 67.791
-22.539 -17.554001 66.539001
-8.6370001 -17.458 69.371002
-20.204 -17.368999 66.586998
12.965 -17.295 68.065002
2.497 -17.23 68.981003
8.7060003 -17.165001 68.248001
17.833 -17.118 66.255997
15.492 -17.082001 66.695
-20.896 -17.056999 65.098999
22.677999 -14.076 65.156998
0.50599998 0.105 2.3610001
0.46799999 0.103 2.316
0.433 0.103 2.3210001
0.38499999 0.101 2.286
0.34299999 0.102 2.3169999
0.29300001 0.103 2.3369999
0.233 0.101 2.306
0.17399999 0.102 2.322
0.11 0.1 2.286
0.046999998 0.1 2.2909999
-0.016000001 0.097000003 2.2290001
-0.075999998 0.096000001 2.191
-0.14 0.098999999 2.2550001
-0.197 0.097999997 2.2279999
-0.26199999 0.101 2.3110001
-0.33500001 0.108 2.444
-0.52200001 0.145 3.2880001
-0.62699997 0.156 3.5190001
-0.69099998 0.15800001 3.5450001
-0.75599998 0.161 3.622
-0.79500002 0.162 3.6210001
-0.84100002 0.16599999 3.7030001
-0.87199998 0.169 3.7720001
0.50800002 0.094999999 2.369
0.48300001 0.094999999 2.3889999
0.43599999 0.093000002 2.3380001
0.391 0.092 2.323
0.33399999 0.089000002 2.257
0.29499999 0.093000002 2.3599999
0.241 0.093999997 2.388
0.175 0.092 2.332
0.113 0.092 2.346
0.046999998 0.090000004 2.2880001
-0.016000001 0.090999998 2.312
-0.078000002 0.088 2.2579999
-0.139 0.088 2.24
-0.199 0.088 2.25
-0.257 0.089000002 2.267
-0.33899999 0.097999997 2.4760001
-0.45699999 0.114 2.878
-0.63800001 0.14300001 3.585
-0.708 0.145 3.6329999
-0.76800001 0.147 3.681
-0.81300002 0.148 3.7019999
-0.829 0.147 3.652
-0.85500002 0.149 3.7
-21.316 10.152 60.078999
0.47999999 0.083999999 2.375
0.442 0.083999999 2.3670001
0.39500001 0.082999997 2.3440001
0.34999999 0.082999997 2.368
0.29499999 0.082999997 2.3599999
0.236 0.082000002 2.3440001
0.183 0.085000001 2.4460001
0.112 0.081 2.3310001
0.048 0.082000002 2.3399999
-0.016000001 0.079000004 2.2739999
-0.079000004 0.079999998 2.2880001
-0.138 0.078000002 2.221
-0.2 0.079000004 2.266
-0.25299999 0.078000002 2.2309999
-0.333 0.085000001 2.4300001
-0.41800001 0.093000002 2.635
-0.63700002 0.127 3.5780001
-0.70300001 0.12800001 3.6099999
-0.759 0.13 3.6389999
-0.82200003 0.134 3.7460001
-0.82300001 0.13 3.6240001
-0.87 0.13500001 3.766
0.50800002 0.074000001 2.368
0.484 0.074000001 2.3970001
0.44499999 0.074000001 2.382
0.40599999 0.074000001 2.4119999
0.35499999 0.074000001 2.3970001
0.301 0.074000001 2.405
0.23899999 0.072999999 2.3740001
0.18000001 0.072999999 2.402
0.116 0.072999999 2.398
0.048 0.071000002 2.3340001
-0.016000001 0.071000002 2.3269999
-0.077 0.067000002 2.2160001
-0.13600001 0.067000002 2.1960001
-0.199 0.068999998 2.2509999
-0.25799999 0.07 2.2720001
-0.331 0.074000001 2.4159999
-0.40700001 0.079000004 2.562
-0.63599998 0.11 3.5710001
-0.69499999 0.111 3.5680001
-0.76200002 0.114 3.6530001
-0.81199998 0.115 3.698
-0.82499999 0.113 3.6329999
-0.85299999 0.115 3.694
10.082 1.1670001 43.536999
0.49399999 0.057999998 2.152
0.52100003 0.061999999 2.329
0.50300002 0.063000001 2.348
0.47600001 0.063000001 2.3540001
0.44100001 0.063000001 2.3610001
0.398 0.061999999 2.3610001
0.34799999 0.061999999 2.3529999
0.29899999 0.063000001 2.3900001
0.248 0.064000003 2.4560001
0.182 0.064000003 2.4319999
0.116 0.063000001 2.405
0.048 0.059999999 2.3039999
-0.016000001 0.059 2.253
-0.075999998 0.057 2.184
-0.138 0.057999998 2.2260001
-0.19499999 0.057999998 2.214
-0.259 0.059999999 2.283
-0.31799999 0.061000001 2.3199999
-0.40200001 0.067000002 2.533
-0.616 0.092 3.4619999
-0.71899998 0.097999997 3.6930001
-0.76099998 0.097000003 3.6459999
-0.81 0.098999999 3.6889999
-0.82099998 0.097000003 3.618
-0.87599999 0.102 3.7909999
0.48899999 0.050999999 2.2820001
0.46700001 0.050999999 2.3099999
0.43000001 0.050999999 2.302
0.398 0.052000001 2.3610001
0.34400001 0.050999999 2.3239999
0.294 0.052000001 2.346
0.23999999 0.052000001 2.382
0.177 0.052000001 2.3599999
0.113 0.050999999 2.3469999
0.046 0.048999999 2.23
-0.016000001 0.048 2.214
-0.074000001 0.046999998 2.1400001
-0.13699999 0.048 2.2119999
-0.19599999 0.048999999 2.2219999
-0.25299999 0.048999999 2.2309999
-0.32300001 0.052000001 2.3570001
-0.41299999 0.057 2.5999999
-0.58399999 0.072999999 3.28
-0.75599998 0.086000003 3.8829999
-0.75 0.079999998 3.596
-0.80500001 0.082000002 3.668
-0.83999997 0.082999997 3.698
-0.85399997 0.082999997 3.6949999
0.49399999 0.041000001 2.3050001
0.463 0.041000001 2.289
0.428 0.041000001 2.293
0.389 0.041000001 2.3099999
0.34299999 0.041000001 2.3169999
0.289 0.039999999 2.3099999
0.237 0.041000001 2.345
0.18000001 0.041999999 2.395
0.111 0.039999999 2.2939999
0.046 0.039000001 2.223
-0.016000001 0.039000001 2.2219999
-0.075999998 0.037999999 2.1930001
-0.138 0.039000001 2.2349999
-0.198 0.039000001 2.244
-0.257 0.039999999 2.2690001
-0.315 0.039999999 2.299
-0.41499999 0.046 2.615
-0.61699998 0.061000001 3.4630001
-0.84899998 0.077 4.3579998
-0.74299997 0.063000001 3.5599999
-0.81 0.066 3.6900001
-0.82200003 0.064000003 3.619
-0.85000002 0.066 3.681
11.061 0.63999999 47.763
0.49700001 0.028999999 2.1670001
0.51700002 0.030999999 2.3150001
0.493 0.030999999 2.2980001
0.46799999 0.030999999 2.3180001
0.42699999 0.029999999 2.2880001
0.38999999 0.030999999 2.3180001
0.336 0.029999999 2.273
0.292 0.030999999 2.332
0.236 0.030999999 2.3380001
0.171 0.029999999 2.2839999
0.109 0.029999999 2.266
0.045000002 0.028999999 2.1930001
-0.016000001 0.028999999 2.224
-0.077 0.028999999 2.2219999
-0.13699999 0.028999999 2.2119999
-0.19499999 0.028999999 2.2079999
-0.25400001 0.028999999 2.2390001
-0.31 0.029999999 2.2679999
-0.41800001 0.035 2.6370001
-0.662 0.048999999 3.7190001
-0.83499998 0.057 4.2849998
-0.78200001 0.050000001 3.7490001
-0.81300002 0.048999999 3.7030001
-0.81900001 0.048 3.6059999
-0.83899999 0.048999999 3.6300001
16.532 0.63200003 71.388
0.51499999 0.02 2.247
0.51099998 0.02 2.286
0.49700001 0.02 2.3199999
0.46700001 0.02 2.3110001
0.435 0.02 2.332
0.38999999 0.02 2.3169999
0.338 0.02 2.2880001
0.289 0.02 2.3110001
0.23999999 0.021 2.3829999
0.17200001 0.02 2.2920001
0.107 0.018999999 2.2290001
0.046 0.018999999 2.2160001
-0.016000001 0.018999999 2.2160001
-0.075999998 0.018999999 2.1849999
-0.13699999 0.018999999 2.2049999
-0.197 0.018999999 2.23
-0.25 0.018999999 2.2090001
-0.324 0.021 2.3699999
-0.40799999 0.022 2.5710001
-0.70300001 0.035 3.9460001
-0.93099999 0.041999999 4.7820001
-0.77600002 0.033 3.72
-0.80299997 0.032000002 3.6600001
-0.81300002 0.032000002 3.5829999
-0.83700001 0.032000002 3.6229999
0.49900001 0.0099999998 2.329
0.463 0.0099999998 2.289
0.426 0.0099999998 2.2809999
0.39300001 0.0099999998 2.332
0.34400001 0.0099999998 2.325
0.287 0.0099999998 2.2950001
0.234 0.0099999998 2.3150001
0.175 0.0099999998 2.329
0.108 0.0099999998 2.2360001
0.046 0.0099999998 2.223
-0.015 0.0089999996 2.194
-0.075999998 0.0089999996 2.178
-0.13600001 0.0089999996 2.197
-0.19499999 0.0099999998 2.2079999
-0.25299999 0.0099999998 2.2320001
-0.32600001 0.0099999998 2.3800001
-0.403 0.011 2.5420001
-0.63700002 0.016000001 3.579
-1.001 0.023 5.138
-0.83399999 0.017999999 3.997
-0.78899997 0.016000001 3.596
-0.81300002 0.016000001 3.5829999
-0.82999998 0.016000001 3.5940001
1.13 -1.984 7.8610001
-1.355 -1.977 7.7950001
-1.506 -1.9579999 7.6900001
2.5539999 -1.927 7.2789998
0.69400001 -1.886 7.5159998
1.488 -1.834 7.1890001
-0.29300001 -1.773 7.0900002
-0.40900001 -1.7029999 6.803
-2.0880001 -1.625 6.1609998
0.69800001 -1.541 6.1290002
1.419 -1.452 5.6350002
-1.215 -1.359 5.3010001
0.77200001 -1.263 4.9959998
-0.417 -1.166 4.6500001
-0.935 -1.0700001 4.1789999
0.0049999999 -0.97500002 3.904
-0.456 -0.884 3.5090001
-0.68000001 -0.79699999 3.1170001
0.33899999 -0.71600002 2.8469999
-0.30399999 -0.64099997 2.553
0.077 -0.57499999 2.3069999
0.384 -0.51899999 2.0450001
0.234 -0.47299999 1.88
-0.405 -0.43700001 1.7029999
-0.38600001 -0.412 1.605
0.48100001 0.33000001 1.54
0.49000001 -0.0099999998 2.2850001
0.47600001 -0.011 2.3540001
0.43799999 -0.011 2.3469999
0.39500001 -0.011 2.3469999
0.35699999 -0.011 2.4130001
0.296 -0.011 2.3610001
0.236 -0.0099999998 2.3380001
0.17200001 -0.0099999998 2.299
0.113 -0.0099999998 2.3399999
0.046999998 -0.0099999998 2.2750001
-0.016000001 -0.0099999998 2.2160001
-0.075000003 -0.0099999998 2.1700001
-0.13600001 -0.0099999998 2.197
-0.19599999 -0.0099999998 2.2149999
-0.25 -0.0099999998 2.21
-0.32100001 -0.0099999998 2.3429999
-0.39899999 -0.011 2.5120001
-0.64399999 -0.016000001 3.6170001
-1.0420001 -0.024 5.3509998
-0.94999999 -0.021 4.5500002
-0.78600001 -0.016000001 3.5810001
-0.80299997 -0.016000001 3.539
-0.83899999 -0.017000001 3.6300001
0.50400001 -0.021 2.349
0.47600001 -0.021 2.355
0.43900001 -0.021 2.3529999
0.41299999 -0.022 2.4489999
0.36000001 -0.022 2.4349999
0.303 -0.021 2.4200001
0.23999999 -0.021 2.3829999
0.17900001 -0.021 2.381
0.114 -0.021 2.362
0.046999998 -0.02 2.2690001
-0.016000001 -0.02 2.2379999
-0.075999998 -0.018999999 2.1849999
-0.13600001 -0.018999999 2.198
-0.192 -0.018999999 2.171
-0.24600001 -0.018999999 2.1719999
-0.31799999 -0.02 2.3210001
-0.40200001 -0.022 2.5339999
-0.66600001 -0.033 3.7390001
-0.889 -0.041000001 4.5640001
-0.921 -0.039000001 4.4130001
-0.778 -0.032000002 3.5450001
-0.81199998 -0.032000002 3.575
-0.83899999 -0.033 3.6300001
0.49900001 -0.030999999 2.3269999
0.484 -0.032000002 2.3970001
0.44999999 -0.032000002 2.4119999
0.40000001 -0.032000002 2.3759999
0.361 -0.032000002 2.437
0.30000001 -0.032000002 2.398
0.241 -0.032000002 2.3900001
0.178 -0.030999999 2.3729999
0.114 -0.030999999 2.362
0.048 -0.029999999 2.312
-0.016000001 -0.028999999 2.2379999
-0.075999998 -0.028999999 2.194
-0.13699999 -0.028999999 2.2119999
-0.189 -0.028000001 2.141
-0.255 -0.029999999 2.2460001
-0.30899999 -0.029999999 2.2550001
-0.39300001 -0.033 2.4749999
-0.634 -0.048 3.5580001
-0.91100001 -0.063000001 4.6789999
-0.88800001 -0.057 4.2529998
-0.787 -0.048 3.586
-0.81199998 -0.048 3.575
-0.84200001 -0.048999999 3.6440001
0.51800001 -0.043000001 2.414
0.49200001 -0.043000001 2.434
0.44100001 -0.041999999 2.3610001
0.40099999 -0.041999999 2.3829999
0.352 -0.041999999 2.378
0.30399999 -0.043000001 2.428
0.23999999 -0.041999999 2.382
0.176 -0.041000001 2.3429999
0.114 -0.041000001 2.358
0.046999998 -0.039999999 2.29
-0.016000001 -0.039999999 2.283
-0.078000002 -0.039000001 2.2449999
-0.13699999 -0.039000001 2.2119999
-0.191 -0.037999999 2.164
-0.25 -0.039000001 2.2090001
-0.315 -0.041000001 2.299
-0.40200001 -0.045000002 2.5339999
-0.60600001 -0.059999999 3.404
-0.81199998 -0.074000001 4.1669998
-0.85399997 -0.072999999 4.0910001
-0.80199999 -0.064999998 3.6530001
-0.81 -0.064000003 3.5680001
-0.84200001 -0.064999998 3.6429999
0.51899999 -0.054000001 2.421
0.50300002 -0.056000002 2.4909999
0.46900001 -0.056000002 2.5139999
0.40900001 -0.054000001 2.427
0.359 -0.054000001 2.427
0.30199999 -0.052999999 2.4130001
0.249 -0.054000001 2.4660001
0.17900001 -0.052000001 2.3800001
0.112 -0.050999999 2.332
0.048999999 -0.052000001 2.3940001
-0.017000001 -0.052000001 2.3570001
-0.079999998 -0.050999999 2.3110001
-0.138 -0.048999999 2.234
-0.193 -0.048 2.1849999
-0.242 -0.046999998 2.132
-0.31099999 -0.050000001 2.2690001
-0.40200001 -0.056000002 2.533
-0.55800003 -0.07 3.1329999
-0.83600003 -0.096000001 4.2909999
-0.82200003 -0.088 3.938
-0.79699999 -0.081 3.631
-0.838 -0.082999997 3.691
-0.83499998 -0.081 3.615
-20.902 9.96 58.945
0.52399999 -0.068999998 2.5940001
0.47600001 -0.068000004 2.549
0.435 -0.068999998 2.5810001
0.368 -0.066 2.4860001
0.31799999 -0.067000002 2.5380001
0.24699999 -0.064999998 2.448
0.18000001 -0.063000001 2.395
0.114 -0.061999999 2.3610001
0.048 -0.059999999 2.306
-0.016000001 -0.061000001 2.312
-0.078000002 -0.059 2.2360001
-0.13600001 -0.057999998 2.2030001
-0.19 -0.057 2.155
-0.25 -0.057999998 2.201
-0.317 -0.061000001 2.313
-0.41800001 -0.07 2.6359999
-0.551 -0.082000002 3.096
-0.87699997 -0.12 4.5040002
-0.74599999 -0.096000001 3.5739999
-0.78399998 -0.096000001 3.573
-0.81999999 -0.097000003 3.6099999
-0.82800001 -0.097000003 3.586
0.57499999 -0.083999999 2.6819999
0.56300002 -0.086999997 2.7880001
0.51999998 -0.086000003 2.7839999
0.45199999 -0.082999997 2.6830001
0.40400001 -0.083999999 2.7279999
0.336 -0.082999997 2.6849999
0.257 -0.078000002 2.5439999
0.19400001 -0.079000004 2.5869999
0.119 -0.075999998 2.473
0.048 -0.071000002 2.3110001
-0.016000001 -0.071000002 2.312
-0.077 -0.068000004 2.2179999
-0.13600001 -0.067000002 2.1889999
-0.193 -0.067000002 2.184
-0.25 -0.068000004 2.2090001
-0.322 -0.071999997 2.349
-0.43900001 -0.086000003 2.7690001
-0.56199998 -0.097999997 3.154
-0.83600003 -0.133 4.29
-0.74299997 -0.111 3.559
-0.77899998 -0.111 3.549
-0.82099998 -0.113 3.615
-0.838 -0.114 3.6289999
0.63700002 -0.106 2.9719999
0.58899999 -0.104 2.914
0.53600001 -0.102 2.8710001
0.49900001 -0.105 2.961
0.414 -0.098999999 2.8010001
0.34 -0.096000001 2.7130001
0.26899999 -0.093999997 2.6700001
0.198 -0.093000002 2.6459999
0.122 -0.088 2.526
0.050000001 -0.085000001 2.438
-0.017000001 -0.082999997 2.3710001
-0.077 -0.077 2.2060001
-0.141 -0.079999998 2.277
-0.198 -0.079000004 2.244
-0.25400001 -0.079000004 2.2379999
-0.31900001 -0.082000002 2.3269999
-0.53600001 -0.12 3.3770001
-0.61900002 -0.123 3.4760001
-0.74199998 -0.13600001 3.8080001
-0.73299998 -0.126 3.5139999
-0.792 -0.12899999 3.608
-0.81300002 -0.12800001 3.582
-0.83200002 -0.12899999 3.602
0.72899997 -0.13699999 3.4000001
0.67400002 -0.134 3.335
0.61199999 -0.131 3.28
0.53200001 -0.126 3.158
0.456 -0.122 3.0799999
0.359 -0.114 2.868
0.29300001 -0.115 2.9000001
0.21699999 -0.114 2.898
0.12899999 -0.105 2.6719999
0.052999999 -0.101 2.5639999
-0.017000001 -0.094999999 2.4230001
-0.079999998 -0.090999998 2.3169999
-0.14300001 -0.090999998 2.3139999
-0.205 -0.092 2.3239999
-0.259 -0.090999998 2.289
-0.31 -0.090000004 2.2679999
-0.53600001 -0.134 3.3759999
-0.61500001 -0.138 3.4530001
-0.70099998 -0.14399999 3.596
-0.745 -0.14300001 3.572
-0.778 -0.142 3.5420001
-0.80599999 -0.14300001 3.5510001
-0.82599998 -0.14399999 3.5769999
0.75700003 -0.15800001 3.5309999
0.73299998 -0.162 3.628
0.66799998 -0.15899999 3.5769999
0.59100002 -0.156 3.5090001
0.51999998 -0.155 3.5150001
0.417 -0.147 3.332
0.32699999 -0.142 3.2379999
0.23 -0.13500001 3.0669999
0.13500001 -0.122 2.7980001
0.055 -0.116 2.6459999
-0.017999999 -0.11 2.5039999
-0.082000002 -0.104 2.3759999
-0.145 -0.102 2.336
-0.215 -0.107 2.4349999
-0.26300001 -0.102 2.3180001
-0.322 -0.104 2.3559999
-0.54000002 -0.15099999 3.405
-0.63 -0.15700001 3.54
-0.69499999 -0.15899999 3.5669999
-0.73299998 -0.15700001 3.513
-0.79500002 -0.162 3.6210001
-0.83899999 -0.16599999 3.6949999
-0.83999997 -0.163 3.6340001
0.77600002 -0.178 3.6170001
0.736 -0.178 3.641
0.69400001 -0.182 3.717
0.62099999 -0.18000001 3.6860001
0.53299999 -0.175 3.6010001
0.46399999 -0.18000001 3.71
0.366 -0.175 3.6289999
0.26699999 -0.171 3.556
0.153 -0.152 3.168
0.057999998 -0.134 2.7850001
-0.017999999 -0.122 2.5480001
-0.083999999 -0.116 2.4130001
-0.147 -0.115 2.381
-0.20999999 -0.115 2.3829999
-0.26300001 -0.112 2.3180001
-0.31299999 -0.111 2.2839999
-0.542 -0.16599999 3.4170001
-0.62199998 -0.171 3.4960001
-0.69499999 -0.175 3.566
-0.74199998 -0.175 3.556
-0.78899997 -0.177 3.5940001
-0.81199998 -0.176 3.5769999
-0.83999997 -0.17900001 3.6340001
0.81400001 -0.189 3.516
0.815 -0.191 3.556
0.81300002 -0.19499999 3.638
0.77899998 -0.19400001 3.631
0.73500001 -0.19400001 3.6400001
0.68599999 -0.19599999 3.6719999
0.61699998 -0.19400001 3.6619999
0.55900002 -0.2 3.776
0.454 -0.191 3.6259999
0.373 -0.19400001 3.6949999
0.27399999 -0.192 3.651
0.17 -0.184 3.517
0.067000002 -0.169 3.221
-0.02 -0.153 2.9260001
-0.089000002 -0.13500001 2.5680001
-0.15000001 -0.127 2.424
-0.208 -0.124 2.3599999
-0.266 -0.124 2.3469999
-0.31799999 -0.123 2.325
-0.54900002 -0.184 3.4619999
-0.60900003 -0.182 3.4219999
-0.68300003 -0.18700001 3.5090001
-0.73900002 -0.189 3.5409999
-0.77899998 -0.19 3.5480001
-0.81400001 -0.193 3.585
-0.81400001 -0.189 3.5239999
0.79699999 -0.21600001 3.717
0.73299998 -0.20999999 3.6270001
0.68400002 -0.212 3.664
0.62800002 -0.215 3.727
0.55000001 -0.213 3.7149999
0.46399999 -0.212 3.7060001
0.37799999 -0.214 3.7479999
0.271 -0.206 3.6140001
0.175 -0.206 3.6199999
0.072999999 -0.20100001 3.5409999
-0.024 -0.199 3.497
-0.109 -0.17900001 3.148
-0.146 -0.134 2.349
-0.212 -0.13699999 2.3970001
-0.26199999 -0.132 2.3080001
-0.331 -0.139 2.421
-0.55199999 -0.2 3.4760001
-0.62400001 -0.20200001 3.5020001
-0.68300003 -0.20299999 3.506
-0.74199998 -0.207 3.5580001
-0.78500003 -0.208 3.5769999
-0.81999999 -0.211 3.6140001
-0.84600002 -0.213 3.661
0.79500002 -0.23199999 3.7090001
0.75999999 -0.235 3.7620001
0.69199997 -0.23100001 3.707
0.61799997 -0.227 3.6659999
0.56199998 -0.235 3.7969999
0.46700001 -0.23 3.7279999
0.375 -0.228 3.7149999
0.28099999 -0.23 3.7460001
0.17399999 -0.221 3.612
0.075000003 -0.222 3.6289999
-0.025 -0.214 3.5039999
-0.118 -0.207 3.391
-0.14399999 -0.14300001 2.329
-0.20299999 -0.141 2.3
-0.25799999 -0.14 2.2720001
-0.32800001 -0.148 2.398
-0.55699998 -0.21699999 3.5120001
-0.63499999 -0.222 3.5669999
-0.69099998 -0.221 3.549
-0.73100001 -0.219 3.503
-0.78299999 -0.223 3.5680001
-0.82999998 -0.229 3.6570001
-0.824 -0.22400001 3.5680001
0.77499998 -0.242 3.612
0.75300002 -0.249 3.7249999
0.70300001 -0.25099999 3.7639999
0.63 -0.249 3.74
0.55699998 -0.25 3.766
0.46799999 -0.24699999 3.7409999
0.38100001 -0.249 3.7809999
0.27500001 -0.242 3.6730001
0.184 -0.25099999 3.8180001
0.075999998 -0.242 3.688
-0.024 -0.226 3.4460001
-0.115 -0.21699999 3.3010001
-0.149 -0.15800001 2.4000001
-0.205 -0.153 2.3210001
-0.26199999 -0.153 2.316
-0.32800001 -0.15800001 2.3940001
-0.57700002 -0.241 3.6359999
-0.62900001 -0.235 3.5320001
-0.69099998 -0.237 3.5480001
-0.764 -0.245 3.6619999
-0.78100002 -0.23899999 3.559
-0.82200003 -0.243 3.6199999
-0.83700001 -0.244 3.6229999
0.801 -0.26699999 3.7360001
0.75999999 -0.26800001 3.76
0.70300001 -0.26800001 3.7650001
0.648 -0.273 3.848
0.565 -0.27000001 3.8180001
0.47499999 -0.26699999 3.7909999
0.38699999 -0.27000001 3.8380001
0.28099999 -0.26300001 3.7509999
0.17900001 -0.25999999 3.7130001
0.075000003 -0.252 3.6059999
-0.025 -0.24600001 3.5250001
-0.104 -0.20900001 2.9879999
-0.15099999 -0.171 2.4360001
-0.206 -0.164 2.335
-0.271 -0.168 2.388
-0.42699999 -0.22 3.1170001
-0.57999998 -0.259 3.6559999
-0.63499999 -0.25299999 3.566
-0.685 -0.25099999 3.5179999
-0.75300002 -0.25799999 3.6099999
-0.78899997 -0.257 3.5940001
-0.82099998 -0.259 3.618
-0.838 -0.25999999 3.6289999
0.81 -0.287 3.7780001
0.75599998 -0.28299999 3.7420001
0.708 -0.28600001 3.7909999
0.648 -0.28999999 3.8469999
0.56400001 -0.28600001 3.8150001
0.48100001 -0.287 3.842
0.382 -0.28299999 3.789
0.28200001 -0.28 3.757
0.184 -0.28400001 3.8150001
0.075999998 -0.27399999 3.6930001
-0.023 -0.248 3.3380001
-0.092 -0.197 2.654
-0.154 -0.185 2.487
-0.211 -0.17900001 2.3959999
-0.287 -0.189 2.5350001
-0.48100001 -0.26300001 3.5109999
-0.574 -0.27200001 3.6159999
-0.63999999 -0.271 3.5929999
-0.68599999 -0.26699999 3.5239999
-0.75300002 -0.27399999 3.6070001
-0.78399998 -0.27200001 3.573
-0.79400003 -0.266 3.4979999
-0.82999998 -0.27399999 3.592
0.80400002 -0.30199999 3.7479999
0.755 -0.30000001 3.7360001
0.71799999 -0.308 3.848
0.63599998 -0.301 3.773
0.56900001 -0.30599999 3.849
0.47400001 -0.301 3.789
0.382 -0.29899999 3.7850001
0.28200001 -0.29699999 3.7579999
0.17900001 -0.292 3.71
0.075999998 -0.28799999 3.655
-0.017999999 -0.20100001 2.5510001
-0.083999999 -0.191 2.4300001
-0.152 -0.19400001 2.457
-0.222 -0.198 2.5109999
-0.315 -0.22 2.7780001
-0.47999999 -0.278 3.5039999
-0.565 -0.28400001 3.559
-0.65399998 -0.294 3.6719999
-0.69499999 -0.28600001 3.566
-0.75300002 -0.28999999 3.6070001
-0.77399999 -0.28400001 3.527
-0.82800001 -0.294 3.645
-0.83099997 -0.28999999 3.596
0.81 -0.32100001 3.777
0.76200002 -0.31900001 3.7709999
0.69999999 -0.317 3.7520001
0.63300002 -0.31600001 3.756
0.56199998 -0.31900001 3.7980001
0.477 -0.31900001 3.809
0.38499999 -0.31900001 3.8199999
0.28600001 -0.31799999 3.8150001
0.18000001 -0.31 3.724
0.075999998 -0.30700001 3.698
-0.017999999 -0.214 2.5810001
-0.086999997 -0.20900001 2.5179999
-0.15099999 -0.20299999 2.441
-0.229 -0.21600001 2.5910001
-0.38100001 -0.28099999 3.358
-0.477 -0.292 3.4860001
-0.56 -0.29699999 3.5280001
-0.639 -0.303 3.5899999
-0.69700003 -0.303 3.579
-0.77100003 -0.31299999 3.6930001
-0.79299998 -0.30700001 3.6129999
-0.81099999 -0.30399999 3.5699999
-0.83899999 -0.31 3.6329999
-7.5219998 3.5880001 21.236
0.76200002 -0.336 3.7690001
0.708 -0.33700001 3.79
0.63099998 -0.333 3.7479999
0.55800003 -0.333 3.7690001
0.48100001 -0.33899999 3.845
0.38100001 -0.333 3.7820001
0.28 -0.32800001 3.7390001
0.177 -0.322 3.671
0.075000003 -0.317 3.6199999
-0.017999999 -0.23 2.6229999
-0.089000002 -0.226 2.5769999
-0.152 -0.215 2.4560001
-0.234 -0.233 2.6570001
-0.38600001 -0.30000001 3.4089999
-0.472 -0.30500001 3.45
-0.56099999 -0.31299999 3.5339999
-0.62300003 -0.31099999 3.5
-0.69 -0.31600001 3.543
-0.74800003 -0.31999999 3.5829999
-0.78600001 -0.32100001 3.582
-0.80900002 -0.31999999 3.562
-0.83600003 -0.32499999 3.6170001
0.80000001 -0.34999999 3.7290001
0.75999999 -0.352 3.7620001
0.69599998 -0.34799999 3.7279999
0.63800001 -0.35299999 3.79
0.56599998 -0.35499999 3.8239999
0.48199999 -0.35600001 3.8510001
0.382 -0.34999999 3.786
0.28099999 -0.34599999 3.7520001
0.184 -0.34999999 3.8099999
0.075000003 -0.33399999 3.6359999
-0.017999999 -0.237 2.5769999
-0.089000002 -0.235 2.556
-0.15899999 -0.237 2.572
-0.243 -0.25400001 2.7520001
-0.38 -0.31 3.3570001
-0.46399999 -0.31400001 3.3900001
-0.55299997 -0.324 3.4820001
-0.634 -0.33199999 3.5580001
-0.69800001 -0.33500001 3.5840001
-0.75800002 -0.34099999 3.631
-0.79100001 -0.33899999 3.605
-0.82499999 -0.34200001 3.6329999
-0.84200001 -0.34400001 3.6440001
0.81300002 -0.373 3.793
0.76700002 -0.37200001 3.7950001
0.71499997 -0.375 3.8280001
0.639 -0.37 3.796
0.56999999 -0.375 3.852
0.47600001 -0.36899999 3.806
0.389 -0.37200001 3.852
0.27900001 -0.359 3.721
0.182 -0.36500001 3.7850001
0.066 -0.30700001 3.1900001
-0.017999999 -0.241 2.5020001
-0.088 -0.244 2.53
-0.184 -0.28600001 2.97
-0.292 -0.31900001 3.3080001
-0.38499999 -0.329 3.4000001
-0.46799999 -0.33199999 3.418
-0.546 -0.33500001 3.4419999
-0.64099997 -0.352 3.5999999
-0.69800001 -0.35100001 3.5829999
-0.75800002 -0.35699999 3.631
-0.79799998 -0.35800001 3.6370001
-0.83399999 -0.36300001 3.675
-0.847 -0.36199999 3.6659999
0.79699999 -0.38299999 3.7179999
0.77700001 -0.39500001 3.8440001
0.70300001 -0.38600001 3.766
0.64499998 -0.391 3.8310001
0.57099998 -0.39300001 3.858
0.479 -0.38800001 3.826
0.391 -0.39199999 3.8729999
0.28099999 -0.37799999 3.7409999
0.182 -0.38 3.77
0.056000002 -0.27399999 2.723
-0.017999999 -0.252 2.5020001
-0.090000004 -0.26100001 2.5880001
-0.207 -0.33700001 3.346
-0.30599999 -0.34999999 3.4649999
-0.38800001 -0.34599999 3.4189999
-0.463 -0.34400001 3.381
-0.55599999 -0.35699999 3.5020001
-0.63999999 -0.36700001 3.592
-0.70999998 -0.37400001 3.6459999
-0.76599997 -0.37799999 3.6730001
-0.80299997 -0.377 3.6570001
-0.82700002 -0.37599999 3.6440001
-0.85500002 -0.382 3.6989999
0.74800003 -0.37400001 3.4860001
0.77899998 -0.41299999 3.8570001
0.69499999 -0.398 3.723
0.63800001 -0.403 3.7869999
0.57300001 -0.41100001 3.8710001
0.47 -0.398 3.7579999
0.39199999 -0.41 3.8859999
0.27900001 -0.39199999 3.7249999
0.177 -0.38499999 3.665
0.055 -0.28 2.6619999
-0.017999999 -0.26699999 2.5439999
-0.094999999 -0.287 2.7349999
-0.21600001 -0.36700001 3.4920001
-0.30399999 -0.36300001 3.441
-0.38600001 -0.36000001 3.401
-0.46599999 -0.361 3.408
-0.55000001 -0.368 3.4630001
-0.63499999 -0.38100001 3.569
-0.70899999 -0.389 3.6370001
-0.77499998 -0.39899999 3.7149999
-0.81900001 -0.40099999 3.7290001
-0.85500002 -0.40599999 3.767
-0.85799998 -0.40000001 3.7130001
0.65700001 -0.34299999 3.063
0.71200001 -0.39300001 3.5220001
0.71799999 -0.428 3.845
0.648 -0.428 3.8499999
0.55000001 -0.41100001 3.7160001
0.47299999 -0.417 3.779
0.37799999 -0.41299999 3.7520001
0.25799999 -0.377 3.4360001
0.154 -0.34999999 3.1919999
0.052000001 -0.278 2.5350001
-0.017999999 -0.28099999 2.566
-0.116 -0.36500001 3.332
-0.223 -0.39399999 3.5940001
-0.30700001 -0.382 3.4760001
-0.391 -0.38 3.4449999
-0.46399999 -0.37400001 3.388
-0.56099999 -0.39199999 3.5339999
-0.63999999 -0.40000001 3.596
-0.71499997 -0.41 3.6719999
-0.76899999 -0.412 3.684
-0.82099998 -0.419 3.7409999
-0.84899998 -0.41999999 3.7420001
-0.866 -0.421 3.7460001
0.66600001 -0.36199999 3.1070001
0.611 -0.35100001 3.0209999
0.708 -0.43900001 3.7920001
0.648 -0.44400001 3.845
0.57300001 -0.44600001 3.8740001
0.477 -0.43799999 3.813
0.36000001 -0.40799999 3.566
0.222 -0.33700001 2.9549999
0.13500001 -0.31900001 2.7950001
0.052999999 -0.29300001 2.5710001
-0.018999999 -0.301 2.6440001
-0.126 -0.414 3.6340001
-0.22400001 -0.412 3.6140001
-0.31400001 -0.40599999 3.556
-0.38999999 -0.39399999 3.437
-0.48100001 -0.40400001 3.5150001
-0.55699998 -0.40400001 3.5079999
-0.64499998 -0.419 3.6240001
-0.71399999 -0.42500001 3.6630001
-0.76800001 -0.428 3.6819999
-0.824 -0.43799999 3.7539999
-0.84299999 -0.433 3.711
-0.86299998 -0.43700001 3.737
0.61500001 -0.347 2.8670001
0.65399998 -0.391 3.237
0.63999999 -0.41299999 3.427
0.63300002 -0.45100001 3.7579999
0.53399998 -0.43200001 3.609
0.44 -0.41999999 3.5179999
0.30399999 -0.35800001 3.013
0.214 -0.338 2.8499999
0.131 -0.322 2.7149999
0.057 -0.324 2.734
-0.021 -0.36000001 3.043
-0.12899999 -0.44100001 3.721
-0.22499999 -0.43000001 3.6289999
-0.31299999 -0.421 3.546
-0.39700001 -0.417 3.5009999
-0.48199999 -0.421 3.52
-0.57099998 -0.43099999 3.596
-0.57099998 -0.43099999 3.596
